<svg width="15" height="11" viewBox="0 0 15 11" fill="none" xmlns="http://www.w3.org/2000/svg">
<path d="M15 9.16667C15 10.0871 14.2537 10.8333 13.3333 10.8333H1.66667C0.74625 10.8333 0 10.0871 0 9.16667V1.66667C0 0.74625 0.74625 0 1.66667 0H13.3333C14.2537 0 15 0.74625 15 1.66667V9.16667Z" fill="#CCD6DD"/>
<path d="M4.97923 5.26498L0.265479 9.97873C0.254229 9.9904 0.250062 10.005 0.240479 10.0166C0.382145 10.2541 0.579645 10.4512 0.817145 10.5933C0.829228 10.5837 0.843395 10.5796 0.854645 10.5683L5.56881 5.85415C5.73131 5.69123 5.73131 5.4279 5.56881 5.26498C5.40548 5.10206 5.14214 5.10206 4.97923 5.26498ZM14.7596 10.0166C14.7509 10.005 14.7459 9.9904 14.7346 9.97915L10.0213 5.26498C9.85798 5.10206 9.59464 5.10206 9.43173 5.26498C9.26881 5.42831 9.26881 5.69165 9.43173 5.85415L14.1455 10.5683C14.1563 10.5791 14.1713 10.5837 14.183 10.5933C14.4209 10.4516 14.618 10.2541 14.7596 10.0166Z" fill="#99AAB5"/>
<path d="M13.3333 0H1.66667C0.74625 0 0 0.74625 0 1.66667V2.09583L6.05333 8.13583C6.8425 8.92458 8.13167 8.92458 8.92167 8.13583L15 2.08708V1.66667C15 0.74625 14.2537 0 13.3333 0Z" fill="#99AAB5"/>
<path d="M13.3334 0H1.66674C1.00507 0 0.43799 0.389167 0.168823 0.947917L6.32132 7.10083C6.97216 7.75167 8.02799 7.75167 8.67841 7.10083L14.8313 0.947917C14.5622 0.389167 13.9955 0 13.3334 0Z" fill="#E1E8ED"/>
</svg>
